inDegrees=yes
name=ik_MT_2026-09-03_17h20_01210270-000-000_orientations
DataType=double
version=3
OpenSimVersion=4.5
endheader
time	pelvis_tilt	pelvis_list	pelvis_rotation	pelvis_tx	pelvis_ty	pelvis_tz	hip_flexion_r	hip_adduction_r	hip_rotation_r	knee_angle_r	knee_angle_r_beta	ankle_angle_r	subtalar_angle_r	mtp_angle_r	hip_flexion_l	hip_adduction_l	hip_rotation_l	knee_angle_l	knee_angle_l_beta	ankle_angle_l	subtalar_angle_l	mtp_angle_l	lumbar_extension	lumbar_bending	lumbar_rotation	arm_flex_r	arm_add_r	arm_rot_r	elbow_flex_r	pro_sup_r	wrist_flex_r	wrist_dev_r	arm_flex_l	arm_add_l	arm_rot_l	elbow_flex_l	pro_sup_l	wrist_flex_l	wrist_dev_l
0	0.106707710637661	-0.01181388951107726	170.7830232198717	0	0.9399999999999999	0	0.09450799942514077	-0.002447567459058752	0.007947784310211446	-0.03647771351129843	-0.0006366562043713794	-0.02294534182056787	0	0	0.09572291904343061	-0.0157703099859478	-0.003627714608867978	-0.02768869879992005	-0.0004832589596516075	-0.004244297141310625	0	0	0.1699747119687746	0.005197934610614793	-0.0015999982585883	-0.478152224505182	-0.1005186112028958	-0.005239288011305554	0.8319918142994559	15.28528434520658	0	0	-0.4743087175125886	-0.09713443968375136	-0.00881680890229101	0.8386559668141359	15.28528434520658	0	0
0.025	0.09915681611782888	-0.0183856754847395	170.7918094942785	0	0.9399999999999999	0	0.08467156756205808	0.0154994962069853	-0.008163594969520099	-0.03025291910947099	-0.0005280130467997796	0.007001120133370626	0	0	0.08142229292248514	0.017411952250166	0.01091883233948785	-0.02480437194912822	-0.0004329179594016108	0.01264944443957316	0	0	0.3176876657300513	-0.005869984497164886	-0.02466265712694002	-0.6676556830233179	-0.09934976075053763	-0.03143006151343471	0.8687462347349703	19.50184692148594	0	0	-0.6671534499903315	-0.08593388900646934	-0.03428444462564398	0.8690499369773402	19.50184692148594	0	0
0.05	0.08815535183074935	-0.01049779200434022	170.7759315738165	0	0.9399999999999999	0	0.08874113025580434	0.002423138027464484	0.01918621336928708	-0.006188634952217054	-0.0001080120561201895	-0.007048383489134721	0	0	0.1001918010851149	-0.001341348148568682	-0.01439726262084038	-0.0002487064325322495	-4.340746118576891e-06	-0.005025279188372848	0	0	0.2051761596831622	-0.0107014457558824	0.02172971744354401	-0.5609555187296213	-0.1027292426056011	-0.03358773019927122	0.8498139110835881	23.7879193736588	0	0	-0.5292029674377208	-0.0906889963554974	-0.05914495348197271	0.8519097407985484	23.7879193736588	0	0
0.075	0.08768161425221757	-0.002020909887694532	170.7521607257962	0	0.9399999999999999	0	0.05884013834118166	0.005556505289105559	0.07550638161316342	-0.04343841609958971	-0.0007581433827891535	0.002282234607860974	0	0	0.113784052081279	-0.008000636484389492	-0.05737851117904635	0.01247812534962431	0.0002177843718275128	-0.004321272759221292	0	0	0.08385036500857886	-0.004348697468425539	0.1026372340155865	-0.4661510638871583	-0.09754508440675448	-0.1258898911585919	0.848625496829797	27.37425468428943	0	0	-0.3802048791278505	-0.08415908101245761	-0.1235543474858605	0.8458883683635113	27.37425468428943	0	0
0.1	0.1022192091798348	0.003800815856145049	170.7495642705369	0	0.9399999999999999	0	0.0530229641154123	0.003085056723202073	0.06371902516602133	-0.06243297663511153	-0.001089661004103387	0.03024634375567297	0	0	0.1035238906635771	-0.00801345774532207	-0.05823839179105855	0.003567782792970124	6.226955673332787e-05	0.0217130828110045	0	0	0.005440616537944334	-0.01167924420336058	0.091962104793594	-0.3904944866479263	-0.1023323259180992	-0.106764440908201	0.8587788219811915	30.30915744966674	0	0	-0.2915569585026294	-0.110120622386218	-0.1677502749362537	0.8445668921205176	30.30915744966674	0	0
0.125	0.05966073263574712	0.02684992706487815	170.7571833300484	0	0.9399999999999999	0	0.01843383865828807	0.01701924394627503	0.04002731453802048	-0.04431264264935298	-0.0007734015144908726	-0.005485560263436284	0	0	0.07672255017571213	-0.02140828455525689	-0.04635518849467586	0.006197069947911125	0.0001081592745674426	-0.00747114582119241	0	0	-0.1673363507259076	-0.01160367862142941	0.1146573048273741	-0.2503692571790402	-0.08625524031218566	-0.1551881133595989	0.8526602642571783	32.61512620848053	0	0	-0.1484091382017237	-0.1147427603629642	-0.1482482268509516	0.8301752309331248	32.61512620848053	0	0
0.15	0.04715648606061213	0.02697646580614662	170.7439389914188	0	0.9399999999999999	0	0.007225118221715439	0.01673115496602487	0.04271873535240735	-0.04377044675296195	-0.0007639384109080471	-0.004790816789585793	0	0	0.05307736173899916	-0.01535138862537334	-0.05000966148956818	-0.001338033304127956	-2.335308665837146e-05	-0.01323018302967777	0	0	-0.2340226258250902	-0.01813051206254739	0.1465585009195024	-0.1801299181772047	-0.1181575841523215	-0.1492271660351004	0.8606346461896274	34.38902068551214	0	0	-0.07911499807373344	-0.1268751761500549	-0.08744953464756647	0.827106064981354	34.38902068551214	0	0
0.175	0.05923981160683978	0.02254767798662239	170.7566105106727	0	0.9399999999999999	0	0.02350484336767789	0.02012758667794869	0.02739481536358209	-0.03656111248179389	-0.0006381117909992987	-0.003177957650882068	0	0	0.05141597907598661	-0.0257835746185305	-0.041005520809977	-0.005817083140923523	-0.0001015272536713688	-0.009786519105580798	0	0	-0.1536736281406019	-0.04292334155722741	0.155417020291334	-0.2941083619855924	-0.09290281254070615	-0.1609918040772499	0.8855120641439292	36.06978510852089	0	0	-0.1956647353274602	-0.1023123340075952	-0.07441798454590137	0.8512872807625097	36.06978510852089	0	0
0.2	0.04047348278656423	0.05106660808206573	170.7699467919587	0	0.9399999999999999	0	0.01948244855245912	0.02380760753325602	-0.00834588696064725	-0.01052239859256131	-0.0001836505006474122	0.001310077793189209	0	0	0.03951891606739251	-0.03106484557241963	-0.04008693394021658	0.01001898426253378	0.0001748642630867104	-0.01388162704284693	0	0	-0.242421694393596	-0.01328833535050838	0.09509824387847099	-0.2062836800583805	-0.08902008817398367	-0.128833799276768	0.8862780578733764	37.32378879637827	0	0	-0.1157038324673471	-0.1093239865698931	-0.1580522749822477	0.8551907882566347	37.32378879637827	0	0
0.225	0.04356943497234885	0.06188151865547925	170.7905033909591	0	0.9399999999999999	0	0.01286659425670647	0.02418162051868358	-0.04367685813789254	0.004817053395386173	8.407344199386094e-05	0.0001218575518495242	0	0	0.03171101161245507	-0.04551879898846563	-0.03065115527028063	-0.001203535035661589	-2.10056490354021e-05	-0.0103719534585328	0	0	-0.2511174968473765	-0.01494987699870063	0.06903568844299285	-0.1944905039112565	-0.09761868063106818	-0.1056429851595382	0.8855002861312939	38.45479795377193	0	0	-0.1119335088869972	-0.1041685381913672	-0.176554498496628	0.850820724740065	38.45479795377193	0	0
0.25	0.04176731699867189	0.06999254579799669	170.809068809965	0	0.9399999999999999	0	0.01923396038869594	0.03288648033155531	-0.08862413368969585	0.02760772651981684	0.0004818457267609594	0.01294291878445953	0	0	0.02890166688298975	-0.03802735111641198	-0.0001011412192281831	-0.005420989697769371	-9.461411894276782e-05	-0.001061519070669982	0	0	-0.4033046807389943	-0.007201338563458937	0.02553177208424799	-0.04641874653229559	-0.1047043422885169	-0.01973702773148994	0.8925902502151705	39.45350081585602	0	0	0.02902944328744004	-0.1085678007997666	-0.2090783562930248	0.8497935757013088	39.45350081585602	0	0
0.275	0.07928440627945138	0.08157433799112258	170.8227780904439	0	0.9399999999999999	0	0.03807910377319637	0.05788266449155529	-0.1285841000884188	0.02133703843143359	0.0003724015732530824	0.06492280521489484	0	0	-0.006014940641220319	-0.04981330645775252	0.008574455937057419	-0.04599027921964374	-0.0008026817962943117	0.04829749952803387	0	0	-0.3415951849194535	0.006564362822462816	-0.1014931363000239	-0.06068905664581341	-0.1074020930776966	0.1374428517560431	0.8851051584460475	40.29539687719139	0	0	-0.0280234546381876	-0.09257801558287297	-0.2893298192710582	0.8597892529036083	40.29539687719139	0	0
0.3	0.06215289153152585	0.1019762286456246	170.8530000758597	0	0.9399999999999999	0	0.06105831212997551	0.05935848627191664	-0.168222058013747	0.05311061904316417	0.0009269551700756152	0.005416637382174874	0	0	0.01944751360989225	-0.0564980707958561	0.01230538436398599	-0.01585486105966736	-0.0002767195279374326	-0.01811799507988677	0	0	-0.524829339151389	0.02684939825460601	-0.1349964083174282	0.1070659280383233	-0.08760933111558518	0.1816505283724069	0.8786519805498307	41.05223718664539	0	0	0.1398389123398314	-0.06982304758576011	-0.3103717388648336	0.8488030026225254	41.05223718664539	0	0
0.325	0.05670081724930274	0.1104872443832092	170.839052978283	0	0.9399999999999999	0	0.03774768885471506	0.06990630553617191	-0.1310278342576141	0.03757738700348699	0.0006558491275069737	0.0215553826068917	0	0	0.005412283982713393	-0.07251442303267096	-0.03742035534965458	-0.01712272580170103	-0.0002988479421558687	-0.009305741300513318	0	0	-0.6061975226176125	0.02210473232179051	-0.09536823444815574	0.1571657438058665	-0.1182817507051252	0.1547583345410562	0.8959666496683354	41.64405942196564	0	0	0.214146827288285	-0.08467165106513981	-0.3310730283457721	0.8495782627773939	41.64405942196564	0	0
0.35	0.07094766896362562	0.1279784525705504	170.8306175610352	0	0.9399999999999999	0	0.03133672689383647	0.08119806913373025	-0.1351304206665193	0.03483135373743754	0.0006079218056451177	0.03841321426591635	0	0	-2.908301518491132e-06	-0.08883179606113123	-0.08353333051239911	-0.02412215696474162	-0.0004210110617176229	0.00243301796432184	0	0	-0.6496274032823592	0.03550437243191411	-0.1277175772564775	0.2173666371708658	-0.1041049912089334	0.1853451959521986	0.8988880543799799	42.137304224267	0	0	0.2706389630922981	-0.0858105346165222	-0.3957785009355146	0.8485897865973415	42.137304224267	0	0
0.375	0.06918228331729417	0.145417381545261	170.8196023875828	0	0.9399999999999999	0	0.002699991235845421	0.09881164566660075	-0.1301336981685585	0.03001891949816491	0.0005239289831341016	0.06706036493560658	0	0	-0.002460957755330257	-0.1047716264167998	-0.128889578610544	-0.0269855117230805	-0.0004709860299032829	0.02753721776831571	0	0	-0.6881533370542531	0.04435783951565243	-0.1297055963622462	0.2153813187193972	-0.1197843782327041	0.1961165719112957	0.9136149612746941	42.60714972602441	0	0	0.2925778179371001	-0.08638916897279916	-0.4135370693648875	0.8525622747137416	42.60714972602441	0	0
0.4	0.04938727924893518	0.1703379015894131	170.8124002934839	0	0.9399999999999999	0	0.03522912426467256	0.1209147451702168	-0.1560247229963409	0.06885865269445325	0.001201810208005474	0.02292358441009102	0	0	-0.009284133708931521	-0.1382623093711781	-0.1903629787353882	0.001712246251527953	2.988433469409377e-05	-0.03037650922704812	0	0	-0.8338481320150809	0.05715463659126752	-0.1786265317109978	0.3678005788991509	-0.1073900280376362	0.2459515706269835	0.8874933159354278	43.00313242968893	0	0	0.4318189427890294	-0.07477346565155074	-0.498720262667748	0.8342793771488192	43.00313242968893	0	0
0.425	0.06195806913169995	0.1865728482385942	170.8119000948592	0	0.9399999999999999	0	0.02950059286132857	0.1330916602162406	-0.1762594410496126	0.06745677529150443	0.00117734283161471	0.05198782235103532	0	0	-0.01998533910625057	-0.141048504305446	-0.2081702240182956	-0.005120317984597093	-8.936640758029957e-05	0.004748582965337191	0	0	-0.8893455540365872	0.07379071313297184	-0.2141775802130407	0.4103039622083264	-0.1179806858752859	0.2889676515821531	0.8973220727263496	43.31320066163425	0	0	0.4721294548933661	-0.06800058972617257	-0.5181602481766736	0.8519770034660723	43.31320066163425	0	0
0.45	0.07277814645712387	0.2165678481390935	170.7808911855519	0	0.9399999999999999	0	0.05880667351352807	0.1411823374911836	-0.1503016227477138	0.07133792943285029	0.001245081750158609	0.0281053403971041	0	0	-0.02993897572309676	-0.1759447574623302	-0.2716446897987761	-0.006418100315340926	-0.0001120169822259855	-0.03331423669599637	0	0	-0.9695977091821305	0.105238366694151	-0.2143940178488437	0.4818311252551374	-0.1152634273004923	0.2846227199150766	0.8974622569665489	43.59852741654426	0	0	0.555586130658977	-0.05392193567778886	-0.5624128642833973	0.8441229930695467	43.59852741654426	0	0
